<?xml version="1.0" encoding="UTF-8" standalone="no"?>
<svg
   xmlns:dc="http://purl.org/dc/elements/1.1/"
   xmlns:cc="http://creativecommons.org/ns#"
   xmlns:rdf="http://www.w3.org/1999/02/22-rdf-syntax-ns#"
   xmlns:svg="http://www.w3.org/2000/svg"
   xmlns="http://www.w3.org/2000/svg"
   xmlns:sodipodi="http://sodipodi.sourceforge.net/DTD/sodipodi-0.dtd"
   xmlns:inkscape="http://www.inkscape.org/namespaces/inkscape"
   width="512"
   height="512"
   viewBox="0 0 135.46667 135.46667"
   version="1.1"
   id="svg8"
   inkscape:version="1.0.1 (1.0.1+r73)"
   sodipodi:docname="logo_gamepad-code.svg">
  <defs
     id="defs2">
    <rect
       x="83.005203"
       y="73.495499"
       width="9.4695272"
       height="9.518261"
       id="rect839" />
    <rect
       x="83.005203"
       y="73.495499"
       width="9.4695272"
       height="9.518261"
       id="rect839-3" />
    <rect
       x="83.005203"
       y="73.495499"
       width="9.4695272"
       height="9.518261"
       id="rect852" />
    <rect
       x="83.005203"
       y="73.495499"
       width="9.4695272"
       height="9.518261"
       id="rect839-7" />
    <rect
       x="83.005203"
       y="73.495499"
       width="9.4695272"
       height="9.518261"
       id="rect881" />
    <rect
       x="83.005203"
       y="73.495499"
       width="9.4695272"
       height="9.518261"
       id="rect839-7-3" />
    <rect
       x="83.005203"
       y="73.495499"
       width="9.4695272"
       height="9.518261"
       id="rect910" />
    <rect
       x="83.005203"
       y="73.495499"
       width="9.4695272"
       height="9.518261"
       id="rect839-7-3-6" />
    <rect
       x="83.005203"
       y="73.495499"
       width="9.4695272"
       height="9.518261"
       id="rect940" />
    <rect
       x="83.005203"
       y="73.495499"
       width="9.4695272"
       height="9.518261"
       id="rect839-7-3-6-9" />
    <rect
       x="83.005203"
       y="73.495499"
       width="9.4695272"
       height="9.518261"
       id="rect969" />
    <rect
       x="83.005203"
       y="73.495499"
       width="9.4695272"
       height="9.518261"
       id="rect839-74" />
    <rect
       x="83.005203"
       y="73.495499"
       width="9.4695272"
       height="9.518261"
       id="rect1016" />
    <rect
       x="83.005203"
       y="73.495499"
       width="9.4695272"
       height="9.518261"
       id="rect839-74-9" />
    <rect
       x="83.005203"
       y="73.495499"
       width="9.4695272"
       height="9.518261"
       id="rect1045" />
    <rect
       x="83.005203"
       y="73.495499"
       width="9.4695272"
       height="9.518261"
       id="rect839-74-2" />
    <rect
       x="83.005203"
       y="73.495499"
       width="9.4695272"
       height="9.518261"
       id="rect1074" />
    <filter
       inkscape:collect="always"
       style="color-interpolation-filters:sRGB"
       id="filter4894"
       x="-0.0984919"
       width="1.1969838"
       y="-0.11527737"
       height="1.2305547">
      <feGaussianBlur
         inkscape:collect="always"
         stdDeviation="2.6465955"
         id="feGaussianBlur4896" />
    </filter>
  </defs>
  <sodipodi:namedview
     id="base"
     pagecolor="#ffffff"
     bordercolor="#666666"
     borderopacity="1.0"
     inkscape:pageopacity="0.0"
     inkscape:pageshadow="2"
     inkscape:zoom="1.070658"
     inkscape:cx="281.51374"
     inkscape:cy="307.07338"
     inkscape:document-units="mm"
     inkscape:current-layer="layer1"
     inkscape:document-rotation="0"
     showgrid="false"
     inkscape:window-width="1920"
     inkscape:window-height="1080"
     inkscape:window-x="666"
     inkscape:window-y="188"
     inkscape:window-maximized="0"
     fit-margin-top="1"
     fit-margin-right="1"
     fit-margin-bottom="1"
     fit-margin-left="1"
     units="px" />
  <metadata
     id="metadata5">
    <rdf:RDF>
      <cc:Work
         rdf:about="">
        <dc:format>image/svg+xml</dc:format>
        <dc:type
           rdf:resource="http://purl.org/dc/dcmitype/StillImage" />
        <dc:title></dc:title>
      </cc:Work>
    </rdf:RDF>
  </metadata>
  <g
     inkscape:label="Layer 1"
     inkscape:groupmode="layer"
     id="layer1"
     transform="translate(-63.579151,-40.175117)">
    <circle
       style="color:#000000;overflow:visible;fill:#000000;stroke-width:0.168708;stop-color:#000000"
       id="path835"
       cx="131.20799"
       cy="110.1519"
       r="62.109322" />
    <g
       aria-label="("
       transform="matrix(24.26206,0,0,19.938042,-1937.4156,-1354.3274)"
       id="text837"
       style="color:#000000;font-size:2.82222px;line-height:0%;font-family:'Ubuntu Mono';-inkscape-font-specification:'Ubuntu Mono';text-decoration:none;text-decoration-line:none;text-decoration-color:#000000;letter-spacing:0px;word-spacing:0px;white-space:pre;shape-inside:url(#rect839);overflow:visible;fill:#000000;stroke-width:0.1;stop-color:#000000">
      <path
         d="m 84.089592,72.555426 q -0.262467,0.2032 -0.400755,0.468489 -0.138289,0.265288 -0.138289,0.578555 0,0.158044 0.03104,0.299155 0.03387,0.141111 0.09878,0.270933 0.06773,0.129822 0.169333,0.251178 0.104422,0.121355 0.245533,0.242711 l -0.127,0.169333 q -0.324555,-0.239889 -0.485421,-0.555977 -0.158045,-0.318911 -0.158045,-0.671689 0,-0.349955 0.160867,-0.668866 0.160866,-0.318911 0.482599,-0.553155 l 0.124178,0.169333 z"
         style="fill:#adff2f"
         id="path1094" />
    </g>
    <g
       aria-label="("
       transform="matrix(-24.26206,0,0,19.938042,2201.7183,-1354.2451)"
       id="text837-5"
       style="color:#000000;font-size:2.82222px;line-height:0%;font-family:'Ubuntu Mono';-inkscape-font-specification:'Ubuntu Mono';text-decoration:none;text-decoration-line:none;text-decoration-color:#000000;letter-spacing:0px;word-spacing:0px;white-space:pre;shape-inside:url(#rect839-7);overflow:visible;fill:#000000;stroke-width:0.1;stop-color:#000000">
      <path
         d="m 84.089592,72.555426 q -0.262467,0.2032 -0.400755,0.468489 -0.138289,0.265288 -0.138289,0.578555 0,0.158044 0.03104,0.299155 0.03387,0.141111 0.09878,0.270933 0.06773,0.129822 0.169333,0.251178 0.104422,0.121355 0.245533,0.242711 l -0.127,0.169333 q -0.324555,-0.239889 -0.485421,-0.555977 -0.158045,-0.318911 -0.158045,-0.671689 0,-0.349955 0.160867,-0.668866 0.160866,-0.318911 0.482599,-0.553155 l 0.124178,0.169333 z"
         style="fill:#adff2f"
         id="path1100" />
    </g>
    <g
       aria-label="+"
       transform="matrix(-15.670894,0,0,15.807426,1424.5361,-1050.7242)"
       id="text837-5-5"
       style="color:#000000;font-size:2.82222px;line-height:0%;font-family:'Ubuntu Mono';-inkscape-font-specification:'Ubuntu Mono';text-decoration:none;text-decoration-line:none;text-decoration-color:#000000;letter-spacing:0px;word-spacing:0px;white-space:pre;shape-inside:url(#rect839-7-3);overflow:visible;fill:#000000;stroke:#adff2f;stroke-width:0.166144;stroke-miterlimit:4;stroke-dasharray:none;stroke-opacity:1;stop-color:#000000">
      <path
         d="m 83.135681,73.523448 h 0.474133 v -0.519289 h 0.2032 v 0.519289 h 0.476956 v 0.197555 h -0.476956 v 0.522111 h -0.2032 v -0.522111 h -0.474133 z"
         style="fill:#adff2f;stroke:#adff2f;stroke-width:0.166144;stroke-miterlimit:4;stroke-dasharray:none;stroke-opacity:1"
         id="path1103" />
    </g>
    <g
       aria-label=":"
       transform="matrix(15.670894,0,0,15.807426,-1168.757,-1050.4246)"
       id="text837-5-5-2"
       style="color:#000000;font-size:2.82222px;line-height:0%;font-family:'Ubuntu Mono';-inkscape-font-specification:'Ubuntu Mono';text-decoration:none;text-decoration-line:none;text-decoration-color:#000000;letter-spacing:0px;word-spacing:0px;white-space:pre;shape-inside:url(#rect839-7-3-6);overflow:visible;fill:#000000;stroke:#adff2f;stroke-width:0.1;stroke-opacity:1;stop-color:#000000">
      <path
         d="m 83.920259,74.183847 q 0,0.08467 -0.05644,0.149578 -0.05644,0.06491 -0.149577,0.06491 -0.09596,0 -0.1524,-0.06491 -0.05644,-0.06491 -0.05644,-0.149578 0,-0.08749 0.05644,-0.1524 0.05644,-0.06491 0.1524,-0.06491 0.09313,0 0.149577,0.06491 0.05644,0.06491 0.05644,0.1524 z m 0,-0.911577 q 0,0.08467 -0.05644,0.149578 -0.05644,0.06491 -0.149577,0.06491 -0.09596,0 -0.1524,-0.06491 -0.05644,-0.06491 -0.05644,-0.149578 0,-0.08749 0.05644,-0.1524 0.05644,-0.06491 0.1524,-0.06491 0.09313,0 0.149577,0.06491 0.05644,0.06491 0.05644,0.1524 z"
         style="fill:#adff2f;stroke:#adff2f;stroke-opacity:1"
         id="path1106" />
    </g>
    <g
       aria-label=":"
       transform="matrix(15.670894,0,0,15.807426,-1154.0633,-1050.7946)"
       id="text837-5-5-2-1"
       style="color:#000000;font-size:2.82222px;line-height:0%;font-family:'Ubuntu Mono';-inkscape-font-specification:'Ubuntu Mono';text-decoration:none;text-decoration-line:none;text-decoration-color:#000000;letter-spacing:0px;word-spacing:0px;white-space:pre;shape-inside:url(#rect839-7-3-6-9);overflow:visible;fill:#000000;stroke:#adff2f;stroke-width:0.1;stroke-opacity:1;stop-color:#000000">
      <path
         d="m 83.920259,74.183847 q 0,0.08467 -0.05644,0.149578 -0.05644,0.06491 -0.149577,0.06491 -0.09596,0 -0.1524,-0.06491 -0.05644,-0.06491 -0.05644,-0.149578 0,-0.08749 0.05644,-0.1524 0.05644,-0.06491 0.1524,-0.06491 0.09313,0 0.149577,0.06491 0.05644,0.06491 0.05644,0.1524 z m 0,-0.911577 q 0,0.08467 -0.05644,0.149578 -0.05644,0.06491 -0.149577,0.06491 -0.09596,0 -0.1524,-0.06491 -0.05644,-0.06491 -0.05644,-0.149578 0,-0.08749 0.05644,-0.1524 0.05644,-0.06491 0.1524,-0.06491 0.09313,0 0.149577,0.06491 0.05644,0.06491 0.05644,0.1524 z"
         style="fill:#adff2f;stroke:#adff2f;stroke-opacity:1"
         id="path1109" />
    </g>
    <g
       aria-label="_"
       transform="matrix(31.037183,0,0,24.910862,-2465.7122,-1772.7254)"
       id="text837-9"
       style="color:#000000;font-size:2.82222px;line-height:0%;font-family:'Ubuntu Mono';-inkscape-font-specification:'Ubuntu Mono';text-decoration:none;text-decoration-line:none;text-decoration-color:#000000;letter-spacing:0px;word-spacing:0px;white-space:pre;shape-inside:url(#rect839-74);overflow:visible;fill:#000000;stroke-width:0.1;stop-color:#000000">
      <path
         d="m 83.028437,74.63258 h 1.365955 v 0.197555 h -1.365955 z"
         style="fill:#adff2f"
         id="path1112" />
    </g>
    <g
       aria-label="~"
       transform="matrix(0,21.679166,-17.399991,0,1413.6035,-1745.8407)"
       id="text837-9-1"
       style="color:#000000;font-size:2.82222px;line-height:0%;font-family:'Ubuntu Mono';-inkscape-font-specification:'Ubuntu Mono';text-decoration:none;text-decoration-line:none;text-decoration-color:#000000;letter-spacing:0px;word-spacing:0px;white-space:pre;shape-inside:url(#rect839-74-9);overflow:visible;fill:#adff2f;stroke:#adff2f;stroke-width:0.0770016;stroke-miterlimit:4;stroke-dasharray:none;stroke-opacity:1;stop-color:#000000">
      <path
         d="m 84.312547,73.478292 q -0.0085,0.04798 -0.03104,0.110067 -0.01976,0.06209 -0.06209,0.115711 -0.03951,0.05362 -0.1016,0.09031 -0.06209,0.03669 -0.149578,0.03669 -0.0762,0 -0.141111,-0.02822 -0.06209,-0.03104 -0.121355,-0.06773 -0.06773,-0.03951 -0.129822,-0.07902 -0.06209,-0.03951 -0.135467,-0.03951 -0.03951,0 -0.06773,0.01976 -0.02822,0.01693 -0.04798,0.04516 -0.01693,0.02822 -0.03104,0.06491 -0.01411,0.03387 -0.02258,0.06491 l -0.160866,-0.04515 q 0.0085,-0.04798 0.03104,-0.110067 0.02258,-0.06209 0.06209,-0.115711 0.03951,-0.05362 0.09878,-0.09031 0.06209,-0.03669 0.1524,-0.03669 0.0762,0 0.138289,0.03104 0.06491,0.02822 0.124178,0.06491 0.06773,0.03951 0.129822,0.07902 0.06491,0.03951 0.135467,0.03951 0.03951,0 0.06773,-0.01693 0.02822,-0.01975 0.04515,-0.04798 0.01976,-0.02822 0.03387,-0.06209 0.01411,-0.03669 0.02258,-0.06773 z"
         style="fill:#adff2f;stroke:#adff2f;stroke-width:0.0770016;stroke-miterlimit:4;stroke-dasharray:none;stroke-opacity:1"
         id="path1115" />
    </g>
    <g
       id="g4648"
       transform="matrix(1.4866114,0,0,1.4866114,-130.1335,-49.124662)"
       style="stroke-width:1;stroke-miterlimit:4;stroke-dasharray:none;filter:url(#filter4894)">
      <g
         aria-label="("
         transform="matrix(16.320378,0,0,13.411738,-1215.7057,-877.97175)"
         id="text837-64"
         style="color:#000000;font-size:2.82222px;line-height:0%;font-family:'Ubuntu Mono';-inkscape-font-specification:'Ubuntu Mono';text-decoration:none;text-decoration-line:none;text-decoration-color:#000000;letter-spacing:0px;word-spacing:0px;white-space:pre;shape-inside:url(#rect839);overflow:visible;fill:#000000;stroke-width:0.0675915;stroke-miterlimit:4;stroke-dasharray:none;stop-color:#000000">
        <path
           d="m 84.089592,72.555426 q -0.262467,0.2032 -0.400755,0.468489 -0.138289,0.265288 -0.138289,0.578555 0,0.158044 0.03104,0.299155 0.03387,0.141111 0.09878,0.270933 0.06773,0.129822 0.169333,0.251178 0.104422,0.121355 0.245533,0.242711 l -0.127,0.169333 q -0.324555,-0.239889 -0.485421,-0.555977 -0.158045,-0.318911 -0.158045,-0.671689 0,-0.349955 0.160867,-0.668866 0.160866,-0.318911 0.482599,-0.553155 l 0.124178,0.169333 z"
           style="fill:#adff2f;stroke-width:0.0675915;stroke-miterlimit:4;stroke-dasharray:none"
           id="path1094-0" />
      </g>
      <g
         aria-label="("
         transform="matrix(-16.320378,0,0,13.411738,1568.5686,-877.91635)"
         id="text837-5-54"
         style="color:#000000;font-size:2.82222px;line-height:0%;font-family:'Ubuntu Mono';-inkscape-font-specification:'Ubuntu Mono';text-decoration:none;text-decoration-line:none;text-decoration-color:#000000;letter-spacing:0px;word-spacing:0px;white-space:pre;shape-inside:url(#rect839-7);overflow:visible;fill:#000000;stroke-width:0.0675915;stroke-miterlimit:4;stroke-dasharray:none;stop-color:#000000">
        <path
           d="m 84.089592,72.555426 q -0.262467,0.2032 -0.400755,0.468489 -0.138289,0.265288 -0.138289,0.578555 0,0.158044 0.03104,0.299155 0.03387,0.141111 0.09878,0.270933 0.06773,0.129822 0.169333,0.251178 0.104422,0.121355 0.245533,0.242711 l -0.127,0.169333 q -0.324555,-0.239889 -0.485421,-0.555977 -0.158045,-0.318911 -0.158045,-0.671689 0,-0.349955 0.160867,-0.668866 0.160866,-0.318911 0.482599,-0.553155 l 0.124178,0.169333 z"
           style="fill:#adff2f;stroke-width:0.0675915;stroke-miterlimit:4;stroke-dasharray:none"
           id="path1100-6" />
      </g>
      <g
         aria-label="+"
         transform="matrix(-10.541352,0,0,10.633193,1045.7808,-673.74676)"
         id="text837-5-5-6"
         style="color:#000000;font-size:2.82222px;line-height:0%;font-family:'Ubuntu Mono';-inkscape-font-specification:'Ubuntu Mono';text-decoration:none;text-decoration-line:none;text-decoration-color:#000000;letter-spacing:0px;word-spacing:0px;white-space:pre;shape-inside:url(#rect839-7-3);overflow:visible;fill:#000000;stroke:#adff2f;stroke-width:0.0944539;stroke-miterlimit:4;stroke-dasharray:none;stroke-opacity:1;stop-color:#000000">
        <path
           d="m 83.135681,73.523448 h 0.474133 v -0.519289 h 0.2032 v 0.519289 h 0.476956 v 0.197555 h -0.476956 v 0.522111 h -0.2032 v -0.522111 h -0.474133 z"
           style="fill:#adff2f;stroke:#adff2f;stroke-width:0.0944539;stroke-miterlimit:4;stroke-dasharray:none;stroke-opacity:1"
           id="path1103-3" />
      </g>
      <g
         aria-label=":"
         transform="matrix(10.541352,0,0,10.633193,-698.65163,-673.54525)"
         id="text837-5-5-2-9"
         style="color:#000000;font-size:2.82222px;line-height:0%;font-family:'Ubuntu Mono';-inkscape-font-specification:'Ubuntu Mono';text-decoration:none;text-decoration-line:none;text-decoration-color:#000000;letter-spacing:0px;word-spacing:0px;white-space:pre;shape-inside:url(#rect839-7-3-6);overflow:visible;fill:#000000;stroke:#adff2f;stroke-width:0.0944539;stroke-miterlimit:4;stroke-dasharray:none;stroke-opacity:1;stop-color:#000000">
        <path
           d="m 83.920259,74.183847 q 0,0.08467 -0.05644,0.149578 -0.05644,0.06491 -0.149577,0.06491 -0.09596,0 -0.1524,-0.06491 -0.05644,-0.06491 -0.05644,-0.149578 0,-0.08749 0.05644,-0.1524 0.05644,-0.06491 0.1524,-0.06491 0.09313,0 0.149577,0.06491 0.05644,0.06491 0.05644,0.1524 z m 0,-0.911577 q 0,0.08467 -0.05644,0.149578 -0.05644,0.06491 -0.149577,0.06491 -0.09596,0 -0.1524,-0.06491 -0.05644,-0.06491 -0.05644,-0.149578 0,-0.08749 0.05644,-0.1524 0.05644,-0.06491 0.1524,-0.06491 0.09313,0 0.149577,0.06491 0.05644,0.06491 0.05644,0.1524 z"
           style="fill:#adff2f;stroke:#adff2f;stroke-width:0.0944539;stroke-miterlimit:4;stroke-dasharray:none;stroke-opacity:1"
           id="path1106-9" />
      </g>
      <g
         aria-label=":"
         transform="matrix(10.541352,0,0,10.633193,-688.76764,-673.79412)"
         id="text837-5-5-2-1-5"
         style="color:#000000;font-size:2.82222px;line-height:0%;font-family:'Ubuntu Mono';-inkscape-font-specification:'Ubuntu Mono';text-decoration:none;text-decoration-line:none;text-decoration-color:#000000;letter-spacing:0px;word-spacing:0px;white-space:pre;shape-inside:url(#rect839-7-3-6-9);overflow:visible;fill:#000000;stroke:#adff2f;stroke-width:0.0944539;stroke-miterlimit:4;stroke-dasharray:none;stroke-opacity:1;stop-color:#000000">
        <path
           d="m 83.920259,74.183847 q 0,0.08467 -0.05644,0.149578 -0.05644,0.06491 -0.149577,0.06491 -0.09596,0 -0.1524,-0.06491 -0.05644,-0.06491 -0.05644,-0.149578 0,-0.08749 0.05644,-0.1524 0.05644,-0.06491 0.1524,-0.06491 0.09313,0 0.149577,0.06491 0.05644,0.06491 0.05644,0.1524 z m 0,-0.911577 q 0,0.08467 -0.05644,0.149578 -0.05644,0.06491 -0.149577,0.06491 -0.09596,0 -0.1524,-0.06491 -0.05644,-0.06491 -0.05644,-0.149578 0,-0.08749 0.05644,-0.1524 0.05644,-0.06491 0.1524,-0.06491 0.09313,0 0.149577,0.06491 0.05644,0.06491 0.05644,0.1524 z"
           style="fill:#adff2f;stroke:#adff2f;stroke-width:0.0944539;stroke-miterlimit:4;stroke-dasharray:none;stroke-opacity:1"
           id="path1109-2" />
      </g>
      <g
         aria-label="_"
         transform="matrix(20.877805,0,0,16.756808,-1571.0754,-1159.4158)"
         id="text837-9-13"
         style="color:#000000;font-size:2.82222px;line-height:0%;font-family:'Ubuntu Mono';-inkscape-font-specification:'Ubuntu Mono';text-decoration:none;text-decoration-line:none;text-decoration-color:#000000;letter-spacing:0px;word-spacing:0px;white-space:pre;shape-inside:url(#rect839-74);overflow:visible;fill:#000000;stroke-width:0.0534641;stroke-miterlimit:4;stroke-dasharray:none;stop-color:#000000">
        <path
           d="m 83.028437,74.63258 h 1.365955 v 0.197555 h -1.365955 z"
           style="fill:#adff2f;stroke-width:0.0534641;stroke-miterlimit:4;stroke-dasharray:none"
           id="path1112-0" />
      </g>
      <g
         aria-label="~"
         transform="matrix(0,14.582941,-11.704465,0,1038.4268,-1141.3313)"
         id="text837-9-1-9"
         style="color:#000000;font-size:2.82222px;line-height:0%;font-family:'Ubuntu Mono';-inkscape-font-specification:'Ubuntu Mono';text-decoration:none;text-decoration-line:none;text-decoration-color:#000000;letter-spacing:0px;word-spacing:0px;white-space:pre;shape-inside:url(#rect839-74-9);overflow:visible;fill:#adff2f;stroke:#adff2f;stroke-width:0.0765423;stroke-miterlimit:4;stroke-dasharray:none;stroke-opacity:1;stop-color:#000000">
        <path
           d="m 84.312547,73.478292 q -0.0085,0.04798 -0.03104,0.110067 -0.01976,0.06209 -0.06209,0.115711 -0.03951,0.05362 -0.1016,0.09031 -0.06209,0.03669 -0.149578,0.03669 -0.0762,0 -0.141111,-0.02822 -0.06209,-0.03104 -0.121355,-0.06773 -0.06773,-0.03951 -0.129822,-0.07902 -0.06209,-0.03951 -0.135467,-0.03951 -0.03951,0 -0.06773,0.01976 -0.02822,0.01693 -0.04798,0.04516 -0.01693,0.02822 -0.03104,0.06491 -0.01411,0.03387 -0.02258,0.06491 l -0.160866,-0.04515 q 0.0085,-0.04798 0.03104,-0.110067 0.02258,-0.06209 0.06209,-0.115711 0.03951,-0.05362 0.09878,-0.09031 0.06209,-0.03669 0.1524,-0.03669 0.0762,0 0.138289,0.03104 0.06491,0.02822 0.124178,0.06491 0.06773,0.03951 0.129822,0.07902 0.06491,0.03951 0.135467,0.03951 0.03951,0 0.06773,-0.01693 0.02822,-0.01975 0.04515,-0.04798 0.01976,-0.02822 0.03387,-0.06209 0.01411,-0.03669 0.02258,-0.06773 z"
           style="fill:#adff2f;stroke:#adff2f;stroke-width:0.0765423;stroke-miterlimit:4;stroke-dasharray:none;stroke-opacity:1"
           id="path1115-9" />
      </g>
    </g>
  </g>
</svg>
